<svg width="60" height="60" viewBox="0 0 60 60" xmlns="http://www.w3.org/2000/svg">
  <defs>
    <linearGradient id="bgGradient" x1="0%" y1="0%" x2="100%" y2="100%">
      <stop offset="0%" style="stop-color:#3b82f6;stop-opacity:1" />
      <stop offset="100%" style="stop-color:#8b5cf6;stop-opacity:1" />
    </linearGradient>
  </defs>
  
  <!-- Background Circle -->
  <circle cx="30" cy="30" r="28" fill="url(#bgGradient)" stroke="#ffffff" stroke-width="2"/>
  
  <!-- Central Person Icon -->
  <g transform="translate(30, 30)">
    <!-- Head -->
    <circle cx="0" cy="-8" r="6" fill="#ffffff" stroke="none"/>
    <!-- Body -->
    <rect x="-4" y="-2" width="8" height="12" fill="#ffffff" rx="2"/>
    <!-- Arms -->
    <rect x="-8" y="0" width="4" height="2" fill="#ffffff" rx="1"/>
    <rect x="4" y="0" width="4" height="2" fill="#ffffff" rx="1"/>
    <!-- Legs -->
    <rect x="-3" y="10" width="2" height="6" fill="#ffffff" rx="1"/>
    <rect x="1" y="10" width="2" height="6" fill="#ffffff" rx="1"/>
  </g>
  
  <!-- Outer Person Icons -->
  <g transform="translate(30, 8)">
    <circle cx="0" cy="-4" r="3" fill="#ffffff"/>
    <rect x="-2" y="0" width="4" height="6" fill="#ffffff" rx="1"/>
    <rect x="-4" y="2" width="2" height="1" fill="#ffffff" rx="0.5"/>
    <rect x="2" y="2" width="2" height="1" fill="#ffffff" rx="0.5"/>
    <rect x="-1.5" y="6" width="1" height="3" fill="#ffffff" rx="0.5"/>
    <rect x="0.5" y="6" width="1" height="3" fill="#ffffff" rx="0.5"/>
  </g>
  
  <g transform="translate(52, 30)">
    <circle cx="0" cy="-4" r="3" fill="#ffffff"/>
    <rect x="-2" y="0" width="4" height="6" fill="#ffffff" rx="1"/>
    <rect x="-4" y="2" width="2" height="1" fill="#ffffff" rx="0.5"/>
    <rect x="2" y="2" width="2" height="1" fill="#ffffff" rx="0.5"/>
    <rect x="-1.5" y="6" width="1" height="3" fill="#ffffff" rx="0.5"/>
    <rect x="0.5" y="6" width="1" height="3" fill="#ffffff" rx="0.5"/>
  </g>
  
  <g transform="translate(30, 52)">
    <circle cx="0" cy="-4" r="3" fill="#ffffff"/>
    <rect x="-2" y="0" width="4" height="6" fill="#ffffff" rx="1"/>
    <rect x="-4" y="2" width="2" height="1" fill="#ffffff" rx="0.5"/>
    <rect x="2" y="2" width="2" height="1" fill="#ffffff" rx="0.5"/>
    <rect x="-1.5" y="6" width="1" height="3" fill="#ffffff" rx="0.5"/>
    <rect x="0.5" y="6" width="1" height="3" fill="#ffffff" rx="0.5"/>
  </g>
  
  <g transform="translate(8, 30)">
    <circle cx="0" cy="-4" r="3" fill="#ffffff"/>
    <rect x="-2" y="0" width="4" height="6" fill="#ffffff" rx="1"/>
    <rect x="-4" y="2" width="2" height="1" fill="#ffffff" rx="0.5"/>
    <rect x="2" y="2" width="2" height="1" fill="#ffffff" rx="0.5"/>
    <rect x="-1.5" y="6" width="1" height="3" fill="#ffffff" rx="0.5"/>
    <rect x="0.5" y="6" width="1" height="3" fill="#ffffff" rx="0.5"/>
  </g>
  
  <g transform="translate(45, 15)">
    <circle cx="0" cy="-4" r="3" fill="#ffffff"/>
    <rect x="-2" y="0" width="4" height="6" fill="#ffffff" rx="1"/>
    <rect x="-4" y="2" width="2" height="1" fill="#ffffff" rx="0.5"/>
    <rect x="2" y="2" width="2" height="1" fill="#ffffff" rx="0.5"/>
    <rect x="-1.5" y="6" width="1" height="3" fill="#ffffff" rx="0.5"/>
    <rect x="0.5" y="6" width="1" height="3" fill="#ffffff" rx="0.5"/>
  </g>
  
  <!-- Connection Lines -->
  <line x1="30" y1="8" x2="30" y2="22" stroke="#fbbf24" stroke-width="2" opacity="0.8"/>
  <line x1="38" y1="30" x2="52" y2="30" stroke="#fbbf24" stroke-width="2" opacity="0.8"/>
  <line x1="30" y1="38" x2="30" y2="52" stroke="#fbbf24" stroke-width="2" opacity="0.8"/>
  <line x1="22" y1="30" x2="8" y2="30" stroke="#fbbf24" stroke-width="2" opacity="0.8"/>
  <line x1="37" y1="17" x2="45" y2="15" stroke="#fbbf24" stroke-width="2" opacity="0.8"/>
  
  <!-- Connection Dots -->
  <circle cx="30" cy="15" r="2" fill="#fbbf24"/>
  <circle cx="45" y="30" r="2" fill="#fbbf24"/>
  <circle cx="30" cy="45" r="2" fill="#fbbf24"/>
  <circle cx="15" y="30" r="2" fill="#fbbf24"/>
  <circle cx="41" y="16" r="2" fill="#fbbf24"/>
</svg>
